<?xml version="1.0" encoding="UTF-8"?><svg id="Layer_2" xmlns="http://www.w3.org/2000/svg" viewBox="0 0 600 300"><defs><style>.cls-1{fill:#050761;}.cls-2{fill:#59ffa0;}</style></defs><g id="Layer_1-2"><rect class="cls-1" width="600" height="300"/><path class="cls-2" d="M315.2,206.74v28.06c0,8.38-6.8,15.2-15.2,15.2s-15.2-6.82-15.2-15.2v-28.06l15.2-26.32,15.2,26.32Z"/><path class="cls-2" d="M315.2,65.2v28.06l-15.2,26.32-15.2-26.32v-28.06c0-8.38,6.8-15.2,15.2-15.2,4.19,0,8,1.7,10.75,4.45,2.75,2.75,4.45,6.56,4.45,10.75Z"/><path class="cls-2" d="M284.8,93.26v30.4l-26.35-15.22-14.02-24.27c-4.19-7.28-1.71-16.58,5.57-20.78,2.4-1.38,5.01-2.03,7.58-2.03,5.26,0,10.37,2.72,13.18,7.6l14.03,24.3Z"/><path class="cls-2" d="M350,236.61c-7.28,4.19-16.58,1.7-20.77-5.57l-14.03-24.3v-30.4l26.35,15.22,14.02,24.27c4.19,7.28,1.71,16.58-5.57,20.78Z"/><path class="cls-2" d="M273.66,134.8h-30.4l-24.3-14.03c-7.26-4.19-9.76-13.49-5.57-20.77,2.82-4.88,7.94-7.6,13.18-7.6,2.59,0,5.2.66,7.6,2.03l24.27,14.02,15.22,26.35Z"/><path class="cls-2" d="M386.61,200c-4.21,7.28-13.5,9.76-20.78,5.57l-24.27-14.02-15.22-26.35h30.4l24.3,14.03c7.26,4.19,9.76,13.49,5.57,20.77Z"/><path class="cls-2" d="M269.58,150l-26.32,15.2h-28.06c-8.38,0-15.2-6.8-15.2-15.2,0-4.19,1.7-8,4.45-10.75,2.75-2.75,6.56-4.45,10.75-4.45h28.06l26.32,15.2Z"/><path class="cls-2" d="M400,150c0,8.4-6.82,15.2-15.2,15.2h-28.06l-26.32-15.2,26.32-15.2h28.06c8.38,0,15.2,6.8,15.2,15.2Z"/><path class="cls-2" d="M273.66,165.2l-15.22,26.35-24.27,14.02c-7.28,4.19-16.58,1.71-20.78-5.57-1.38-2.4-2.03-5.01-2.03-7.58,0-5.26,2.72-10.37,7.6-13.18l24.3-14.03h30.4Z"/><path class="cls-2" d="M381.04,120.77l-24.3,14.03h-30.4l15.22-26.35,24.27-14.02c7.28-4.19,16.58-1.71,20.78,5.57,4.19,7.28,1.7,16.58-5.57,20.77Z"/><path class="cls-2" d="M284.8,176.34v30.4l-14.03,24.3c-4.19,7.26-13.49,9.76-20.77,5.57-4.88-2.82-7.6-7.94-7.6-13.18,0-2.59.66-5.2,2.03-7.6l14.02-24.27,26.35-15.22Z"/><path class="cls-2" d="M355.57,84.18l-14.02,24.27-26.35,15.22v-30.4l14.03-24.3c4.19-7.26,13.49-9.76,20.77-5.57,7.28,4.21,9.76,13.5,5.57,20.78Z"/></g></svg>