<?xml version="1.0" encoding="UTF-8"?><svg id="Layer_2" xmlns="http://www.w3.org/2000/svg" viewBox="0 0 600 300"><defs><style>.cls-1{fill:#050761;}.cls-2{fill:#59ffa0;}</style></defs><g id="Layer_1-2"><rect class="cls-1" width="600" height="300"/><path class="cls-2" d="M300.14,50.14h-.27c-27.58,0-52.55,11.17-70.61,29.26-18.09,18.06-29.26,43.03-29.26,70.61,0,55.14,44.71,99.86,99.86,99.86h100.14v-99.86c0-55.16-44.71-99.86-99.86-99.86ZM300.01,223.13c-40.39,0-73.15-32.76-73.15-73.15s32.76-73.13,73.15-73.13,73.13,32.74,73.13,73.13-32.74,73.15-73.13,73.15Z"/><path class="cls-2" d="M342.32,149.98v.02c0,23.36-18.95,42.31-42.31,42.31s-42.31-18.95-42.31-42.31v-.02c.02-23.38,18.93-42.29,42.31-42.29s42.29,18.92,42.31,42.29Z"/></g></svg>