<?xml version="1.0" encoding="UTF-8"?><svg id="Layer_2" xmlns="http://www.w3.org/2000/svg" viewBox="0 0 600 300"><defs><style>.cls-1{fill:#40ffa7;}.cls-2{fill:#050761;}</style></defs><g id="Layer_1-2"><rect class="cls-2" width="600" height="300"/><path class="cls-1" d="M204.29,75.11h0c-5.72,5.72-5.72,15.09,0,20.82l40.08,40.08c11.5,11.5,30.14,11.5,41.63,0,11.5-11.5,11.5-30.14,0-41.63l-40.08-40.08c-5.72-5.72-15.09-5.72-20.82,0h0c-5.72,5.72-5.72,15.09,0,20.82-5.72-5.72-15.09-5.72-20.82,0Z"/><path class="cls-1" d="M395.71,224.89h0c5.72-5.72,5.72-15.09,0-20.82l-40.08-40.08c-11.5-11.5-30.14-11.5-41.63,0-11.5,11.5-11.5,30.14,0,41.63l40.08,40.08c5.72,5.72,15.09,5.72,20.82,0h0c5.72-5.72,5.72-15.09,0-20.82,5.72,5.72,15.09,5.72,20.82,0Z"/><path class="cls-1" d="M374.89,54.29h0c-5.72-5.72-15.09-5.72-20.82,0l-40.08,40.08c-11.5,11.5-11.5,30.14,0,41.63,11.5,11.5,30.14,11.5,41.63,0l40.08-40.08c5.72-5.72,5.72-15.09,0-20.82h0c-5.72-5.72-15.09-5.72-20.82,0,5.72-5.72,5.72-15.09,0-20.82Z"/><path class="cls-1" d="M225.11,245.71h0c5.72,5.72,15.09,5.72,20.82,0l40.08-40.08c11.5-11.5,11.5-30.14,0-41.63-11.5-11.5-30.14-11.5-41.63,0l-40.08,40.08c-5.72,5.72-5.72,15.09,0,20.82h0c5.72,5.72,15.09,5.72,20.82,0-5.72,5.72-5.72,15.09,0,20.82Z"/></g></svg>