<?xml version="1.0" encoding="UTF-8"?><svg id="Layer_2" xmlns="http://www.w3.org/2000/svg" viewBox="0 0 600 300"><defs><style>.cls-1{fill:#40ffa7;}.cls-2{fill:#050761;}</style></defs><g id="Layer_1-2"><rect class="cls-2" x="0" width="600" height="300"/><path class="cls-1" d="M301.45,53.29c-16.06,0-29.48,11.91-31.86,27.33-2.07-15.43-15.28-27.33-31.28-27.33-17.44,0-31.57,14.14-31.57,31.57s14.14,31.57,31.57,31.57c15.77,0,28.84-11.57,31.19-26.68,2.09,15.75,15.65,28.01,31.95,28.01-16.18,0-29.66,12.08-31.9,27.66-2.22-15.27-15.36-27-31.24-27-17.44,0-31.57,14.14-31.57,31.57s14.14,31.57,31.57,31.57c15.88,0,29.02-11.73,31.24-27,2.24,15.58,15.73,27.66,31.9,27.66-16.3,0-29.86,12.26-31.95,28.01-2.35-15.11-15.42-26.68-31.19-26.68-17.44,0-31.57,14.14-31.57,31.57s14.14,31.57,31.57,31.57c16,0,29.21-11.9,31.28-27.33,2.38,15.42,15.8,27.33,31.86,27.33h91.81V53.29h-91.81Z"/></g></svg>