<?xml version="1.0" encoding="UTF-8"?><svg id="Layer_2" xmlns="http://www.w3.org/2000/svg" viewBox="0 0 600 300"><defs><style>.cls-1{fill:#050761;}.cls-2{fill:#59ffa0;}</style></defs><g id="Layer_1-2"><rect class="cls-1" width="600" height="300"/><path class="cls-2" d="M300.39,150c55.8-.24,100.97-50.68,100.97-50.68,0,0-45.16-50.44-100.97-50.68h-.39c-55.98,0-101.36,50.68-101.36,50.68,0,0,45.38,50.68,101.36,50.68-55.98,0-101.36,50.68-101.36,50.68,0,0,45.38,50.68,101.36,50.68h.39c55.8-.24,100.97-50.68,100.97-50.68,0,0-45.16-50.44-100.97-50.68ZM267.65,99.99c0-17.87,14.48-32.35,32.35-32.35.13,0,.26,0,.39.02,17.69.19,31.96,14.6,31.96,32.34s-14.27,32.13-31.96,32.32c-.13.02-.26.02-.39.02-17.87,0-32.35-14.48-32.35-32.34ZM300.39,233.76c-.13.02-.26.02-.39.02-17.87,0-32.35-14.48-32.35-32.34s14.48-32.35,32.35-32.35c.13,0,.26,0,.39.02,17.69.19,31.96,14.6,31.96,32.34s-14.27,32.13-31.96,32.32Z"/></g></svg>