<?xml version="1.0" encoding="UTF-8"?><svg id="Layer_2" xmlns="http://www.w3.org/2000/svg" viewBox="0 0 600 300"><defs><style>.cls-1{fill:#050761;}.cls-2{fill:#59ffa0;}</style></defs><g id="Layer_1-2"><rect class="cls-1" width="600" height="300"/><path class="cls-2" d="M355.82,85.1h-111.64c-24.4,0-44.18-19.78-44.18-44.16h200c0,12.2-4.94,23.24-12.94,31.22-8,8-19.04,12.94-31.24,12.94Z"/><rect class="cls-2" x="255.83" y="13.64" width="88.34" height="200" rx="44.17" ry="44.17" transform="translate(413.64 -186.36) rotate(90)"/><path class="cls-2" d="M200,186.35h0c0-24.39,19.78-44.17,44.17-44.17h111.66c24.39,0,44.17,19.78,44.17,44.17h0c0,24.39-19.78,44.17-44.17,44.17h-111.66c-24.39,0-44.17-19.78-44.17-44.17Z"/><path class="cls-2" d="M400,259.06h-200c0-24.4,19.78-44.16,44.18-44.16h111.64c24.4,0,44.18,19.76,44.18,44.16Z"/></g></svg>