<?xml version="1.0" encoding="UTF-8"?><svg id="Layer_2" xmlns="http://www.w3.org/2000/svg" viewBox="0 0 600 300"><defs><style>.cls-1{fill:#050761;}.cls-2{fill:#59ffa0;}</style></defs><g id="Layer_1-2"><rect class="cls-1" width="600" height="300"/><path class="cls-2" d="M235.1,94.18v111.64c0,24.4-19.78,44.18-44.16,44.18V50c12.2,0,23.24,4.94,31.22,12.94,8,8,12.94,19.04,12.94,31.24Z"/><rect class="cls-2" x="219.47" y="50" width="88.34" height="200" rx="40.5" ry="40.5"/><path class="cls-2" d="M336.35,250h0c-24.39,0-44.17-19.78-44.17-44.17v-111.66c0-24.39,19.78-44.17,44.17-44.17h0c24.39,0,44.17,19.78,44.17,44.17v111.66c0,24.39-19.78,44.17-44.17,44.17Z"/><path class="cls-2" d="M409.06,50v200c-24.4,0-44.16-19.78-44.16-44.18v-111.64c0-24.4,19.76-44.18,44.16-44.18Z"/></g></svg>