<?xml version="1.0" encoding="UTF-8"?><svg id="Layer_2" xmlns="http://www.w3.org/2000/svg" viewBox="0 0 600 300"><defs><style>.cls-1{fill:#050761;}.cls-2{fill:#59ffa0;}</style></defs><g id="Layer_1-2"><rect class="cls-1" x="0" width="600" height="300"/><path class="cls-2" d="M392.14,126.18l-20.26-2.48c-6.63-.81-10.06-8.33-6.34-13.87l11.39-16.93c5.1-7.57-3.09-17.01-11.31-13.05l-18.38,8.87c-6.01,2.9-12.97-1.57-12.83-8.24l.43-20.4c.19-9.12-11.8-12.64-16.57-4.86l-10.67,17.4c-3.49,5.69-11.76,5.69-15.25,0l-10.67-17.4c-4.77-7.78-16.76-4.26-16.56,4.86l.43,20.4c.14,6.68-6.82,11.15-12.83,8.24l-18.38-8.87c-8.22-3.97-16.4,5.48-11.31,13.05l11.39,16.93c3.73,5.54.29,13.06-6.33,13.87l-20.26,2.48c-9.06,1.11-10.84,13.48-2.46,17.09l18.74,8.08c6.13,2.64,7.31,10.83,2.17,15.09l-15.7,13.03c-7.02,5.83-1.83,17.2,7.17,15.71l20.13-3.33c6.59-1.09,12,5.16,9.99,11.52l-6.16,19.45c-2.76,8.7,7.76,15.46,14.52,9.33l15.14-13.69c4.95-4.48,12.89-2.15,14.63,4.3l5.33,19.7c2.38,8.81,14.88,8.81,17.27,0l5.33-19.7c1.75-6.44,9.68-8.77,14.63-4.3l15.14,13.69c6.77,6.12,17.28-.64,14.53-9.33l-6.16-19.45c-2.02-6.36,3.4-12.61,9.99-11.52l20.13,3.33c9,1.49,14.19-9.88,7.17-15.71l-15.7-13.03c-5.14-4.26-3.96-12.45,2.17-15.09l18.74-8.08c8.38-3.61,6.6-15.98-2.46-17.09Z"/></g></svg>