<?xml version="1.0" encoding="UTF-8"?><svg id="Layer_2" xmlns="http://www.w3.org/2000/svg" viewBox="0 0 600 300"><defs><style>.cls-1{fill:#40ffa7;}.cls-2{fill:#050761;}</style></defs><g id="Layer_1-2"><rect class="cls-2" width="600" height="300"/><path class="cls-1" d="M337.59,53.75h61.91v10.53c0,20.75-16.84,37.59-37.59,37.59h-61.91v-10.53c0-20.75,16.84-37.59,37.59-37.59Z"/><path class="cls-1" d="M200.5,53.75h61.91c20.75,0,37.59,16.84,37.59,37.59v10.53h-61.91c-20.75,0-37.59-16.84-37.59-37.59v-10.53h0Z" transform="translate(500.5 155.63) rotate(180)"/><path class="cls-1" d="M337.59,101.88h61.91v10.53c0,20.75-16.84,37.59-37.59,37.59h-61.91v-10.53c0-20.75,16.84-37.59,37.59-37.59Z"/><path class="cls-1" d="M200.5,101.88h61.91c20.75,0,37.59,16.84,37.59,37.59v10.53h-61.91c-20.75,0-37.59-16.84-37.59-37.59v-10.53h0Z" transform="translate(500.5 251.88) rotate(180)"/><path class="cls-1" d="M337.59,150h61.91v10.53c0,20.75-16.84,37.59-37.59,37.59h-61.91v-10.53c0-20.75,16.84-37.59,37.59-37.59Z"/><path class="cls-1" d="M200.5,150h61.91c20.75,0,37.59,16.84,37.59,37.59v10.53h-61.91c-20.75,0-37.59-16.84-37.59-37.59v-10.53h0Z" transform="translate(500.5 348.12) rotate(-180)"/><path class="cls-1" d="M337.59,198.12h61.91v10.53c0,20.75-16.84,37.59-37.59,37.59h-61.91v-10.53c0-20.75,16.84-37.59,37.59-37.59Z"/><path class="cls-1" d="M200.5,198.12h61.91c20.75,0,37.59,16.84,37.59,37.59v10.53h-61.91c-20.75,0-37.59-16.84-37.59-37.59v-10.53h0Z" transform="translate(500.5 444.37) rotate(-180)"/></g></svg>