<?xml version="1.0" encoding="UTF-8"?><svg id="Layer_2" xmlns="http://www.w3.org/2000/svg" viewBox="0 0 600 300"><defs><style>.cls-1{fill:#050761;}.cls-2{fill:#59ffa0;}</style></defs><g id="Layer_1-2"><rect class="cls-1" width="600" height="300"/><path class="cls-2" d="M385.54,114.62c-8.96-9.1-21.33-14.83-35.06-15.09-.53-27.44-22.91-49.54-50.48-49.54-13.78,0-26.26,5.52-35.38,14.48-9.1,8.96-14.83,21.34-15.09,35.06-27.44.51-49.54,22.91-49.54,50.46,0,13.78,5.52,26.27,14.48,35.39,8.96,9.1,21.34,14.83,35.06,15.09.51,27.44,22.91,49.52,50.46,49.52,13.78,0,26.27-5.52,35.38-14.46,9.12-8.96,14.85-21.33,15.1-35.06,27.44-.51,49.52-22.91,49.52-50.48,0-13.78-5.52-26.26-14.46-35.38ZM355.81,156.27l-42.58,6.96-6.96,42.58h-12.54l-6.94-42.58-42.58-6.96v-12.53l42.58-6.96,6.94-42.58h12.54l6.96,42.58,42.58,6.96v12.53Z"/></g></svg>