<?xml version="1.0" encoding="UTF-8"?><svg id="Layer_2" xmlns="http://www.w3.org/2000/svg" viewBox="0 0 600 300"><defs><style>.cls-1{fill:#050761;}.cls-2{fill:#59ffa0;}</style></defs><g id="Layer_1-2"><rect class="cls-1" width="600" height="300"/><path class="cls-2" d="M300.09,104.79v45.52h-.18c-3.72,0-7.4-.22-11.02-.62-50-5.56-88.89-47.97-88.89-99.46h45.52c0,30.15,24.43,54.56,54.57,54.56Z"/><path class="cls-2" d="M300.09,204.25v45.52c-55.27,0-100.09-44.8-100.09-100.09h45.52c0,30.15,24.43,54.56,54.57,54.56Z"/><path class="cls-2" d="M400,104.79v45.52h-.18c-3.72,0-7.4-.22-11.02-.62-50-5.56-88.89-47.97-88.89-99.46h45.52c0,30.15,24.43,54.56,54.57,54.56Z"/><path class="cls-2" d="M400,204.25v45.52c-55.27,0-100.09-44.8-100.09-100.09h45.52c0,30.15,24.43,54.56,54.57,54.56Z"/></g></svg>