<?xml version="1.0" encoding="UTF-8"?><svg id="Layer_2" xmlns="http://www.w3.org/2000/svg" viewBox="0 0 600 300"><defs><style>.cls-1{fill:#40ffa7;}.cls-2{fill:#050761;}</style></defs><g id="Layer_1-2"><rect class="cls-2" width="600" height="300"/><path class="cls-1" d="M323.31,70.55l12.47-17.65c2.59-3.66,8.34-1.28,7.58,3.14l-3.67,21.3c-3.35,19.43,13.54,36.31,32.97,32.97l21.3-3.67c4.42-.76,6.8,5,3.14,7.58l-17.65,12.47c-16.1,11.37-16.1,35.25,0,46.62l17.65,12.47c3.66,2.59,1.28,8.34-3.14,7.58l-21.3-3.67c-19.43-3.35-36.31,13.54-32.97,32.97l3.67,21.3c.76,4.42-5,6.8-7.58,3.14l-12.47-17.65c-11.37-16.1-35.25-16.1-46.62,0l-12.47,17.65c-2.59,3.66-8.34,1.28-7.58-3.14l3.67-21.3c3.35-19.43-13.54-36.31-32.97-32.97l-21.3,3.67c-4.42.76-6.8-5-3.14-7.58l17.65-12.47c16.1-11.37,16.1-35.25,0-46.62l-17.65-12.47c-3.66-2.59-1.28-8.34,3.14-7.58l21.3,3.67c19.43,3.35,36.31-13.54,32.97-32.97l-3.67-21.3c-.76-4.42,5-6.8,7.58-3.14l12.47,17.65c11.37,16.1,35.25,16.1,46.62,0Z"/></g></svg>