<?xml version="1.0" encoding="UTF-8"?><svg id="Layer_2" xmlns="http://www.w3.org/2000/svg" viewBox="0 0 433.03 152.43"><defs><style>.cls-1{fill:#f995be;}</style></defs><g id="Layer_1-2"><path class="cls-1" d="M343.51,2.22c-71.67-5.07-143.75-1.42-214.59,10.53-29.46,4.97-60.53,9.86-87.32,23.85-12.13,6.33-22.75,14.98-30.82,26.05-9.63,13.2-15,31.54-6.65,46.68,7.09,12.86,21.68,18.8,34.96,22.94,16.4,5.11,33.19,8.95,50.13,11.8,34.57,5.82,69.62,7.89,104.64,8.3,62.52.74,126.7-4.47,184.47-30.15,14-6.22,28.21-13.5,40.23-23.1,13.03-10.4,19.92-27.75,9.17-42.46-9.49-12.99-26.68-20.15-41.1-26.1-15.34-6.34-31.38-10.25-47.83-12.31-8.14-1.02-16.31-1.45-24.51-1.35-14.61.17-14.65,22.89,0,22.72,28.81-.34,57.38,6.7,82.49,20.92,4.49,2.54,11.05,5.62,13.3,10.6.57,1.26.66,1.93.31,3.02-.7,2.17-2.62,4.21-4.39,5.89-4.49,4.27-10.14,7.36-15.47,10.46-6.23,3.63-12.63,6.97-19.16,10.03-50.58,23.69-108.05,28.95-163.2,29.18-30.94.13-62-.98-92.73-4.63-15.43-1.84-30.78-4.52-45.91-8.07-12.95-3.04-27.67-5.89-38.94-12.6-3.85-2.3-7.1-5.13-7.81-9.35-.93-5.5,1.53-11.1,4.23-15.77,5.4-9.31,13.47-16.02,22.96-21.39,22.28-12.59,49.38-16.85,74.47-21.39,64.18-11.62,129.7-15.85,194.86-12.96,8.07.36,16.14.83,24.2,1.4,6.13.43,11.36-5.53,11.36-11.36,0-6.51-5.22-10.93-11.36-11.36h0Z"/></g></svg>