<?xml version="1.0" encoding="UTF-8"?><svg id="Layer_2" xmlns="http://www.w3.org/2000/svg" viewBox="0 0 438.23 136.34"><defs><style>.cls-1{fill:#40ffa7;}</style></defs><g id="Layer_1-2"><path class="cls-1" d="M25.91,92.01c11.49-12.31,23.23-22.98,36.05-32.59l-18.57-14.59c-13.31,16.19-23.54,33.94-29.46,51.16-5.18,15.06,10.09,20.08,24.58,7.57,20.73-17.89,40.46-36.7,59.1-56.31-8.61-1.19-17.21-2.39-25.82-3.58-4.56,16.61-14.03,34.67-26.43,51.37-5.58,7.52-4.74,16.68,2.26,18.45,7.78,1.97,16.51-2.65,23.12-10.48,23.03-27.29,46.86-54.11,71.53-80.64-8.61-1.19-17.21-2.39-25.82-3.58-8.95,32.14-25.15,66.86-45.88,98.85h28.93c3.07-12.84,10.76-29.51,19.69-42.64,2.47-3.62,5.09-7.21,7.84-10.73,1.58-2.02,3.2-4.01,4.86-5.99,1.44-1.7,1.67-1.97.71-.82.87-.97,1.74-1.94,2.63-2.89,3.1-3.35,6.33-6.63,9.67-9.81,1.91-1.82,3.86-3.61,5.84-5.36.58-.51,5.45-4.64,3.9-3.38l-22.12-6.62c-4.13,19.51-14.17,39.24-29.42,58.64,8.46,2.66,16.92,5.32,25.38,7.98,9.96-12.67,19.19-23.09,31.24-35.15,11.29-11.29,24.17-22.85,35.69-31.99l-22.12-6.62c-2.75,11.26-7.69,23.87-14.3,36.41-5.94,11.27-14.65,23.83-24.24,35.47h28.93c1.04-4.94,3.66-10.74,7.71-16.25,2.43-3.29,2.61-3.56,6.05-6.9.51-.5,4.61-3.61,2.16-1.98-1.47.66-1.27.55.62-.33-7.18,1.55-10.81.3-10.88-3.77,0-.88-.1-.55-.29,1-.19.93-.39,1.87-.61,2.81-.49,2.19-1.03,4.39-1.62,6.6-.88,3.28-1.65,5.79-2.92,9.35-2.95,8.31-6.6,16.64-10.81,24.97-3.76,7.44-.09,13.8,6.45,14.73,7.11,1.02,15.69-3.57,21.24-10.74,18.02-23.25,36.04-46.51,54.06-69.76h-28.93c-4.03,16.64-10.61,33.57-19.47,50.98-3.78,7.44-.07,13.8,6.45,14.73,7.52,1.07,15.18-3.74,21.24-10.74,5.74-6.62,15.02-16.23,22.69-23.55,8.21-7.84,16.88-15.43,24.91-21.79l-22.12-6.62c-4.04,17.11-13.07,34.88-26,51.99,9.23,1.33,18.46,2.66,27.69,3.99,1.03-2.12,2.09-4.24,3.3-6.34-1.08,1.86,1.95-2.98,2.53-3.84,1.39-2.07,2.86-4.12,4.4-6.14.77-1.01,1.58-2,2.37-3.01l1.22-1.49c-.8.88-.78.85.06-.09,3.41-3.88,7.18-7.61,11.09-11.14.98-.88,1.97-1.76,2.98-2.61,2.47-2.1-1.65,1.27.9-.73,2.35-1.84,4.74-3.58,7.17-5.29l-20.88-10.61c-4.75,14.37-11.19,28.78-19.29,43.15-4.16,7.38.22,13.84,6.45,14.73,7.25,1.04,15.51-3.63,21.24-10.74,3.89-4.83,5.55-6.82,9.6-11.22s8.1-8.55,12.36-12.66c8.67-8.37,16.16-14.74,25.07-21.47-7.37-2.21-14.75-4.41-22.12-6.62-4.71,19.47-12.64,39.52-23.15,59.68-8.7,16.68,17.28,20.69,27.69,3.99,14.76-23.66,33.78-43.45,57.67-59.9-7.37-2.21-14.75-4.41-22.12-6.62-3.81,16.42-13.31,33.32-27.47,49.77,8.46,2.66,16.92,5.32,25.38,7.98,7.57-10.89,14.14-18.99,23.11-28.2,4.53-4.66,9.27-9.17,14.17-13.52,5.35-4.74,7.98-6.82,14-11.33-7.37-2.21-14.75-4.41-22.12-6.62-2.72,16.63-7.8,31.91-16.32,49.32-8.36,17.09,16.05,20.1,27.69,3.99,8.28-11.47,17-22.22,26.56-32.51l-24.58-7.57c-6.83,12.4-11.27,24.94-13.63,37.03s14.57,14.63,25.82,3.58c16.38-16.07,32.76-32.15,49.14-48.22l-22.27-11.56c-8.54,14.48-17.08,28.96-25.63,43.43-4.56,7.73-5.44,16.5,2.26,18.45,6.38,1.62,18.22-2.17,23.12-10.48,8.54-14.48,17.08-28.96,25.63-43.43,4.37-7.4,5.35-14.68-.81-17.7-5.59-2.74-14.73-.47-21.46,6.14-16.38,16.07-32.76,32.15-49.14,48.22,8.61,1.19,17.21,2.39,25.82,3.58,1.88-9.62,5.43-18.66,11.15-29.06,8.09-14.7-12.5-20.59-24.58-7.57s-22.9,26.01-32.77,39.68c9.23,1.33,18.46,2.66,27.69,3.99,9.43-19.27,15.76-38.73,18.8-57.3,1.7-10.37-10.62-15.23-22.12-6.62-25.37,18.99-47.72,41.56-64.9,66.29-5.28,7.6-4.95,16.62,2.26,18.45,7.87,1.99,16.42-2.69,23.12-10.48,17.89-20.79,29.5-43.81,34.58-65.72,2.61-11.26-11.1-14.21-22.12-6.62-28.66,19.74-54.05,45.52-71.28,73.14,9.23,1.33,18.46,2.66,27.69,3.99,11.83-22.67,20.24-45.38,25.63-67.65,2.61-10.77-11.25-14.84-22.12-6.62-22.95,17.33-43.16,36.9-60.64,58.6,9.23,1.33,18.46,2.66,27.69,3.99,8.1-14.37,14.54-28.77,19.29-43.15,2-6.06,1.83-11.28-3.12-13.71-4.53-2.22-11.51-1.27-17.77,3.1-23.79,16.64-42.89,38.61-54.26,61.89-3.64,7.45-.18,13.78,6.45,14.73,7.02,1,15.8-3.54,21.24-10.74,16.69-22.08,27.77-45.36,33.1-67.94,2.47-10.46-11.26-15.22-22.12-6.62-22.65,17.94-42.74,37.24-61.21,58.58,9.23,1.33,18.46,2.66,27.69,3.99,10.06-19.77,17.25-39.55,21.95-58.95,1.49-6.16-3.22-11.29-9.56-11.01-6.99.31-14.32,4.49-19.37,11.01-18.02,23.25-36.04,46.51-54.06,69.76,9.23,1.33,18.46,2.66,27.69,3.99,6.54-12.93,11.4-25.71,15.14-38.5,3.93-13.44,8.17-31.88-9.55-31.31-14.95.48-29.44,13.82-39.65,26.22-9.46,11.49-15.35,24.19-17.85,36.07-1.29,6.14,3.08,11.3,9.56,11.01,7.2-.32,14.05-4.55,19.37-11.01,23.08-28.03,38.48-58.54,45.64-87.83,2.57-10.49-11.33-15.18-22.12-6.62-30.38,24.1-57.39,50.93-80.55,80.38-5.84,7.43-4.54,16.73,2.26,18.45,7.48,1.9,16.86-2.52,23.12-10.48,18.88-24.01,31.31-49.94,36.53-74.59,2.15-10.16-11.12-15.56-22.12-6.62-38.78,31.51-66.43,71.43-75.86,110.81-3.42,14.28,19.63,14.34,28.93,0,24.65-38.04,42.33-76.54,52.99-114.8,3.49-12.51-15.43-14.75-25.82-3.58-26.77,28.79-52.67,58.09-77.75,87.8,8.46,2.66,16.92,5.32,25.38,7.98,16.33-22,27.34-44.76,33.53-67.32,3.47-12.62-15.34-14.62-25.82-3.58-18.64,19.62-38.38,38.42-59.1,56.31l24.58,7.57c5.32-15.45,12.89-28.64,24.84-43.18,11.53-14.03-4.08-25.46-18.57-14.59-15.61,11.7-30.3,24.59-43.45,38.67C-.04,84.15-2.45,93.09,2.99,97.39c4.88,3.86,16.09,1.93,22.92-5.38h0Z"/></g></svg>